<?xml version="1.0" standalone="no"?> 
<!DOCTYPE svg PUBLIC "-//W3C//DTD SVG 1.1//EN" "http://www.w3.org/Graphics/SVG/1.1/DTD/svg11.dtd" >
<svg xmlns="http://www.w3.org/2000/svg">
<defs>
  <font id="iconfont-admin" horiz-adv-x="256">
    <font-face font-family="iconfont-admin"
      units-per-em="1001" ascent="1001"
      descent="0" />
    <missing-glyph horiz-adv-x="0" />
    <glyph glyph-name="account"
      unicode="&#xE001;"
      horiz-adv-x="1001" d=" M500.5 993.1796875C228.5408125 993.1796875 7.8203125 772.4591875 7.8203125 500.5S228.5408125 7.8203125 500.5 7.8203125S993.1796875 228.5408125 993.1796875 500.5S772.4591875 993.1796875 500.5 993.1796875zM500.5 845.37578125C582.284828125 845.37578125 648.3039062500001 779.356703125 648.3039062500001 697.5718750000001S582.284828125 549.7679687499999 500.5 549.7679687499999S352.69609375 615.787046875 352.69609375 697.571875S418.715171875 845.37578125 500.5 845.37578125zM500.5 145.770625C377.330078125 145.770625 268.4478671875 208.8336250000001 204.8921875 304.4134843750001C206.3702265625 402.4567421874999 401.9640625 456.158828125 500.5 456.158828125C598.5432578125001 456.158828125 794.6297734374999 402.4567421874999 796.1078125 304.4134843750001C732.5521328125 208.833625 623.669921875 145.770625 500.5 145.770625z" />
    <glyph glyph-name="add"
      unicode="&#xE002;"
      horiz-adv-x="1001" d=" M993.1796875 430.1171875H570.8828125V7.8203125H430.1171875V430.1171875H7.8203125V570.8828125H430.1171875V993.1796875H570.8828125V570.8828125H993.1796875V430.1171875z" />
    <glyph glyph-name="arrow-down"
      unicode="&#xE003;"
      horiz-adv-x="1001" d=" M979.88515625 700.7L532.5632812499999 233.0453125C514.5765625 214.2765625 486.4234375 214.2765625 468.43671875 233.0453125L21.11484375 700.7C3.128125 719.46875 3.128125 749.1859375 21.11484375 767.9546875000001C39.1015625 786.7234375 67.2546875 786.7234375 85.24140625 767.9546875000001L500.5 333.92734375L915.75859375 767.9546875000001C933.7453125 786.7234375 961.8984375 786.7234375 979.88515625 767.9546875000001C997.871875 749.1859374999999 997.871875 719.46875 979.88515625 700.7z" />
    <glyph glyph-name="arrow-left-double"
      unicode="&#xE004;"
      horiz-adv-x="1001" d=" M536.4734374999999 21.11484375L68.81875 468.4367187500001C50.05 486.4234375 50.05 514.5765625 68.81875 532.56328125L536.4734374999999 979.88515625C555.2421875 997.871875 584.959375 997.871875 603.7281249999999 979.88515625C622.4968749999999 961.8984375 622.4968749999999 933.7453125 603.7281249999999 915.75859375L169.70078125 500.5L603.728125 85.2414062500001C622.496875 67.2546875000001 622.496875 39.1015625 603.728125 21.11484375C584.959375 3.1281250000001 555.2421875 3.1281250000001 536.4734374999999 21.11484375z M864.9265624999999 21.11484375L397.271875 468.4367187500001C378.503125 486.4234375 378.503125 514.5765625 397.271875 532.56328125L864.9265624999999 979.8851562500003C883.6953125 997.871875 913.4125 997.871875 932.1812499999997 979.8851562500003C950.95 961.8984375000002 950.95 933.7453125 932.1812499999997 915.75859375L498.15390625 500.5L932.18125 85.2414062500001C950.95 67.2546875000001 950.95 39.1015625 932.18125 21.11484375C913.4125 3.1281250000001 883.6953125 3.1281250000001 864.9265624999999 21.11484375z" />
    <glyph glyph-name="arrow-left"
      unicode="&#xE005;"
      horiz-adv-x="1001" d=" M700.6999999999999 21.11484375L233.0453125 468.4367187500001C214.2765625 486.4234375 214.2765625 514.5765625 233.0453125 532.56328125L700.6999999999999 979.88515625C719.46875 997.871875 749.1859375 997.871875 767.9546874999999 979.88515625C786.7234374999999 961.8984375 786.7234374999999 933.7453125 767.9546874999999 915.75859375L333.9273437500001 500.5L767.9546875 85.2414062500001C786.7234375 67.2546875000001 786.7234375 39.1015625 767.9546875 21.11484375C749.1859375 3.1281250000001 719.46875 3.1281250000001 700.6999999999999 21.11484375z" />
    <glyph glyph-name="arrow-right-double"
      unicode="&#xE006;"
      horiz-adv-x="1001" d=" M464.5265625 979.88515625L932.1812499999997 532.5632812499999C950.95 514.5765624999999 950.95 486.4234374999999 932.1812499999997 468.43671875L464.5265625 21.1148437499999C445.7578125 3.128125 416.0406249999999 3.128125 397.2718749999999 21.1148437499999C378.503125 39.1015624999999 378.503125 67.2546874999999 397.2718749999999 85.24140625L831.29921875 500.5L397.271875 915.75859375C378.503125 933.7453125 378.503125 961.8984375 397.271875 979.88515625C416.0406250000001 997.871875 445.7578125 997.871875 464.5265625 979.88515625z M136.0734375 979.88515625L603.7281249999999 532.5632812499999C622.4968749999999 514.5765624999999 622.4968749999999 486.4234374999999 603.7281249999999 468.43671875L136.0734374999999 21.1148437499999C117.3046874999999 3.128125 87.5874999999999 3.128125 68.8187499999999 21.1148437499999C50.0499999999999 39.1015624999999 50.0499999999999 67.2546874999999 68.8187499999999 85.24140625L502.84609375 500.5L68.81875 915.75859375C50.05 932.96328125 50.05 961.8984375 68.81875 979.88515625C87.5875 997.871875 117.3046875 997.871875 136.0734375 979.88515625z" />
    <glyph glyph-name="arrow-right"
      unicode="&#xE007;"
      horiz-adv-x="1001" d=" M300.3 979.88515625L767.9546874999999 532.5632812499999C786.7234374999999 514.5765624999999 786.7234374999999 486.4234374999999 767.9546874999999 468.43671875L300.3 21.1148437499999C281.53125 3.128125 251.8140624999999 3.128125 233.0453124999999 21.1148437499999C214.2765624999999 39.1015624999999 214.2765624999999 67.2546874999999 233.0453124999999 85.24140625L667.07265625 500.5L233.0453125 915.75859375C214.2765625 933.7453125 214.2765625 961.8984375 233.0453125 979.88515625C251.8140625000001 997.871875 281.53125 997.871875 300.3 979.88515625z" />
    <glyph glyph-name="arrow-up"
      unicode="&#xE008;"
      horiz-adv-x="1001" d=" M21.11484375 300.3000000000001L468.4367187500001 767.9546875000001C486.4234375 786.7234375 514.5765625000001 786.7234375 532.56328125 767.9546875000001L979.8851562500003 300.3000000000001C997.871875 281.53125 997.871875 251.8140625 979.8851562500003 233.0453125000002C961.8984375000002 214.2765625000001 933.7453125 214.2765625000001 915.75859375 233.0453125000002L500.5 667.0726562499999L85.24140625 233.0453125C67.2546875 214.2765625 39.1015625 214.2765625 21.11484375 233.0453125C3.128125 251.8140625 3.128125 281.53125 21.11484375 300.3000000000001z" />
    <glyph glyph-name="breadcrumb-divider"
      unicode="&#xE009;"
      horiz-adv-x="1001" d=" M195.5078125 877.3999609375L572.5328984375 500.5L195.5078125 123.6000390625001L311.576890625 7.8203125L805.4921875 500.5L311.576890625 993.1796875L195.5078125 877.3999609375z" />
    <glyph glyph-name="check"
      unicode="&#xE00A;"
      horiz-adv-x="1001" d=" M830.8534609375 895.42578125L362.6748125 430.1562890624999L172.1172578125 619.5016953125L8.805671875 457.1754687499999L362.6748125 105.57421875L994.165046875 733.0995546875z" />
    <glyph glyph-name="checkbox-tick"
      unicode="&#xE00B;"
      horiz-adv-x="1001" d=" M730.5344921875001 774.2109375L403.5515859375 451.748171875L270.4655078125 582.9808359374999L156.40625 470.47L403.5515859375 226.7890625L844.59375 661.707921875z" />
    <glyph glyph-name="circle"
      unicode="&#xE00C;"
      horiz-adv-x="1001" d=" M7.8203125 500.5C7.8203125 228.400522042349 228.400522042349 7.8203125 500.5 7.8203125C772.5994779576511 7.8203125 993.1796875 228.400522042349 993.1796875 500.5C993.1796875 772.5994779576511 772.5994779576511 993.1796875 500.5 993.1796875C228.400522042349 993.1796875 7.8203125 772.5994779576511 7.8203125 500.5z" />
    <glyph glyph-name="close-circle"
      unicode="&#xE00D;"
      horiz-adv-x="1001" d=" M500.5 993.1796875C228.400046875 993.1796875 7.8203125 772.599953125 7.8203125 500.5S228.400046875 7.8203125 500.5 7.8203125S993.1796875 228.4000468750001 993.1796875 500.5S772.599953125 993.1796875 500.5 993.1796875zM735.109375 345.517046875L655.24834375 265.890625L500.046421875 421.1003671875L345.7516562500001 267.2435390625L265.890625 346.8699609375001L420.1932109375 500.2810312500001L265.890625 654.1300390625L345.7516562500001 733.7564609375L500.0542421875001 579.8996328125L655.24834375 735.109375L735.109375 655.482953125L579.453875 500.2732109375L735.109375 345.517046875z" />
    <glyph glyph-name="close"
      unicode="&#xE00E;"
      horiz-adv-x="1001" d=" M907.15625 771.0828125L768.73671875 909.50234375L499.71796875 639.7015624999999L232.26328125 907.15625L93.84375 768.73671875L361.2984375000001 501.28203125L93.84375 234.609375L232.26328125 96.18984375L499.71796875 363.64453125L768.73671875 93.84375L907.15625 232.26328125L637.35546875 501.28203125z" />
    <glyph glyph-name="cog"
      unicode="&#xE00F;"
      horiz-adv-x="1001" d=" M876.7899765625 452.2173906249999C878.8154375 467.9674999999999 880.3403984375 483.7410703125 880.3403984375 500.4843593749999C880.3403984375 517.2589296875 878.8154375 533.0012187499999 876.7899765625 548.782609375L983.6154453125 630.0356562499999C993.2344296875 637.4571328124999 995.7525703125 650.7360234374999 989.6840078125 661.5906171874999L888.4266015625 832.08125C882.3580390625 842.9045624999999 868.6881328124999 846.861640625 857.5520078124999 842.9045624999999L731.4885703125 793.6444140624999C705.1575781249999 813.3516015624999 676.801125 829.594390625 645.9187109375 841.9426640625L626.6807421875001 972.4949609374999C625.1636015625 984.2958125 614.52015625 993.1796875 601.8825312499999 993.1796875H399.3442578125C386.7066328125 993.1796875 376.0631875000001 984.2958125 374.5382265625001 972.4793203125L355.3002578125 841.9270234375C324.4256640625 829.57875 296.0692109375001 812.8354609375 269.7616796875 793.6287734375001L143.6669609375 842.888921875C132.022515625 847.31521875 118.8609296875 842.888921875 112.7923671875 832.065609375L11.5349609375 661.5906171874999C4.9658984375 650.74384375 7.9845390625 637.4571328125 17.6035234375 630.0356562499999L124.4289921875 548.782609375C122.40353125 533.0090390624999 120.8785703125 516.73496875 120.8785703125 500.4843593749999S122.40353125 467.9674999999999 124.4289921875 452.2173906249999L17.6035234375 370.90178125C7.9845390625 363.5115859375001 5.4663984375 350.2248749999999 11.5349609375 339.3781015625L112.7923671875 168.8874687499999C118.8609296875 158.0641562499999 132.554296875 154.1070781249999 143.6669609375 158.0641562499999L269.7616796875 207.3243046875C296.061390625 187.6171171875 324.41784375 171.343046875 355.3002578125 159.0573359375L374.5382265625001 28.4815781249999C376.0631875000001 16.6650859375 386.7066328125 7.8046718749999 399.3442578125 7.8046718749999H601.8825312499999C614.52015625 7.8046718749999 625.1636015625 16.6572656249999 626.6885625 28.4815781249999L645.9265312499999 159.0573359375C676.8011249999998 171.343046875 705.1575781249999 188.1176171875 731.4963906249999 207.3243046875L857.5598281249999 158.0641562499999C869.2042734375 153.637859375 882.3658593749999 158.0641562499999 888.4344218749999 168.8874687499999L989.6918281249998 339.3781015625C995.7603906249998 350.2248749999999 993.2422499999998 363.5115859375 983.6232656249998 370.90178125L876.7899765625 452.2173906249999zM500.59384375 328.062109375C402.8868593750001 328.062109375 323.4246640625 405.4206406250001 323.4246640625 500.4843593750001C323.4246640625 595.579359375 402.8946796875 672.937890625 500.59384375 672.937890625C598.3321093750001 672.937890625 677.8255859375 595.579359375 677.8255859375 500.4843593750001C677.8255859375 405.4206406250001 598.3321093750001 328.062109375 500.59384375 328.062109375z" />
    <glyph glyph-name="copy"
      unicode="&#xE010;"
      horiz-adv-x="1001" d=" M707.847765625 993.1796875H163.241203125C113.3241484375 993.1796875 72.4708359375 952.8894375 72.4708359375 903.5901875V276.5575312499999H163.241203125V903.5901875H707.847765625V993.1796875zM844.015046875 814.03196875H344.7741171875001C294.8570625 814.03196875 254.0037500000001 773.7182578125 254.0037500000001 724.47375V97.4098125C254.0037500000001 48.14184375 294.8570625000001 7.8203125 344.7741171875001 7.8203125H844.0072265625001C893.92428125 7.8203125 934.77759375 48.1340234375 934.77759375 97.4098125V724.4659296875C934.77759375 773.7182578125 893.92428125 814.03196875 844.015046875 814.03196875zM844.015046875 97.4098125H344.7741171875001V724.4659296875H844.0072265625001V97.4098125z" />
    <glyph glyph-name="delete"
      unicode="&#xE011;"
      horiz-adv-x="1001" d=" M168.8170859375 117.320328125C168.8170859375 57.1117421875 218.5542734375 7.8203125 279.37284375 7.8203125H721.6271562500001C782.4222656250001 7.8203125 832.1829140625001 57.1195625 832.1829140625001 117.320328125V774.2109375H168.8170859375V117.320328125zM304.7966796875 507.084703125L382.741734375 584.23990625L500.484359375 468.2021093750001L617.6952031249999 584.2399062500001L695.6402578125 507.084703125L578.4294140625 391.015625L695.6402578125001 274.9778281250001L617.695203125 197.79134375L500.484359375 313.8604218750001L383.2969765625 197.79134375L305.351921875 274.9778281250001L422.5393046875 391.015625L304.7966796875 507.084703125zM693.9745312499999 938.4296796875L638.6927421875 993.1796875H362.3072578125L307.02546875 938.4296796875H113.535296875V828.9609453125H887.4568828125V938.4296796875H693.9745312499999z" />
    <glyph glyph-name="drag-handle"
      unicode="&#xE012;"
      horiz-adv-x="1001" d=" M140.765625 156.40625H297.171875V0H140.765625V156.40625z M140.765625 1001H297.171875V844.59375H140.765625V1001z M140.765625 719.46875H297.171875V563.0625H140.765625V719.46875z M140.765625 437.9375H297.171875V281.53125H140.765625V437.9375z M422.296875 156.40625H578.703125V0H422.296875V156.40625z M422.296875 1001H578.703125V844.59375H422.296875V1001z M422.296875 719.46875H578.703125V563.0625H422.296875V719.46875z M422.296875 437.9375H578.703125V281.53125H422.296875V437.9375z M703.828125 156.40625H860.234375V0H703.828125V156.40625z M703.828125 1001H860.234375V844.59375H703.828125V1001z M703.828125 719.46875H860.234375V563.0625H703.828125V719.46875z M703.828125 437.9375H860.234375V281.53125H703.828125V437.9375z" />
    <glyph glyph-name="dropdown-triangle"
      unicode="&#xE013;"
      horiz-adv-x="1001" d=" M7.8203125 742.9296875L500.5 164.2265625L993.1796875 742.9296875z" />
    <glyph glyph-name="file"
      unicode="&#xE014;"
      horiz-adv-x="1001" d=" M207.23828125 993.1796875C153.4736328125 993.1796875 109.9770546875 948.838515625 109.9770546875 894.64375L109.484375 106.3562499999999C109.484375 52.1614843749999 152.9887734375 7.8203125 206.7456015625 7.8203125H793.76171875C847.5263671875 7.8203125 891.515625 52.161484375 891.515625 106.3562499999999V697.5718750000001L598.25390625 993.1796875H207.23828125zM549.376953125 648.30390625V919.277734375L818.2001953125 648.3039062500001H549.376953125z" />
    <glyph glyph-name="folder"
      unicode="&#xE015;"
      horiz-adv-x="1001" d=" M401.9640625 894.64375H106.35625C52.161484375 894.64375 8.3129921875 850.302578125 8.3129921875 796.1078125L7.8203125 204.8921875C7.8203125 150.697421875 52.161484375 106.3562500000001 106.35625 106.3562500000001H894.64375C948.8385156249998 106.3562500000001 993.1796874999998 150.697421875 993.1796874999998 204.8921875V697.5718750000001C993.1796874999998 751.766640625 948.8385156249998 796.1078125 894.64375 796.1078125H500.5L401.9640625 894.64375z" />
    <glyph glyph-name="globe"
      unicode="&#xE016;"
      horiz-adv-x="1001" d=" M500.0073203125 993.1796875C228.0481328125 993.1796875 7.8203125 772.4591875 7.8203125 500.5S228.0481328125 7.8203125 500.0073203125 7.8203125C772.4591875 7.8203125 993.1796875 228.5408125 993.1796875 500.5S772.4591875 993.1796875 500.0073203125 993.1796875zM841.43434375 697.5718750000001H696.0938359375C680.3280859375 759.1568359375001 657.6648203125 818.2783984375001 628.1040390625 872.96584375C718.7571015625 841.9270234375 794.13709375 778.8640234375 841.43434375 697.5718750000001zM500.5 892.67303125C541.3924140624999 833.55146875 573.41659375 768.0250703125 594.6018203125 697.5718750000001H406.3981796875C427.58340625 768.0250703125 459.6075859375 833.55146875 500.5 892.67303125zM119.165921875 401.9640625000001C111.283046875 433.4955625 106.35625 466.5051015625 106.35625 500.5S111.283046875 567.5044375 119.165921875 599.0359375H285.69165625C281.75021875 566.5190781250001 278.794140625 534.00221875 278.794140625 500.5S281.75021875 434.4809218749999 285.69165625 401.9640625000001H119.165921875zM159.56565625 303.428125H304.9061640625C320.6719140625001 241.8431640625 343.3351796875001 182.7216015624999 372.8959609375001 128.03415625C282.2428984375 159.0729765625 206.86290625 221.643296875 159.56565625 303.428125zM304.9061640625 697.5718750000001H159.56565625C206.86290625 779.356703125 282.2428984375 841.9270234375 372.8959609375 872.96584375C343.3351796875 818.2783984375001 320.6719140625001 759.1568359375 304.9061640625 697.5718750000001zM500.5 108.32696875C459.6075859375 167.4485312500001 427.58340625 232.9749296875 406.3981796875 303.4281250000002H594.6018203125C573.41659375 232.9749296875 541.3924140624999 167.4485312500001 500.5 108.32696875zM615.787046875 401.9640625000001H385.212953125C380.7788359375 434.4809218750001 377.330078125 466.9977812500001 377.330078125 500.5000000000001S380.7788359375 567.0117578125 385.212953125 599.0359375H615.787046875C620.2211640625 567.0117578125 623.669921875 534.0022187500001 623.669921875 500.5000000000001S620.2211640625 434.4809218750001 615.787046875 401.9640625000001zM628.1040390625 128.03415625C657.6648203125 182.7216015624999 680.3280859375 241.8431640625 696.0938359375 303.428125H841.43434375C794.13709375 222.1359765625 718.7571015625 159.0729765625 628.1040390625 128.03415625zM715.3083437500001 401.9640625000001C719.2497812500001 434.4809218750001 722.205859375 466.9977812500001 722.205859375 500.5000000000001S719.2497812500001 566.5190781250001 715.3083437500001 599.0359375H881.834078125C889.7169531249999 567.5044375000001 894.6437500000001 534.4948984375001 894.6437500000001 500.5000000000001S889.716953125 433.4955625 881.834078125 401.9640625000001H715.3083437500001z" />
    <glyph glyph-name="home"
      unicode="&#xE017;"
      horiz-adv-x="1001" d=" M401.9640625 82.11328125V377.4473828125H599.0359374999999V82.11328125H845.3757812499999V475.8894765624999H993.1796875L500.5 918.88671875L7.8203125 475.8894765624999H155.62421875V82.11328125H401.9640625z" />
    <glyph glyph-name="inbox"
      unicode="&#xE018;"
      horiz-adv-x="1001" d=" M883.6953125 993.1796875H116.757265625C55.9934375 993.1796875 8.367734375 944.459140625 8.367734375 883.6953125L7.8203125 117.3046875C7.8203125 57.08828125 55.9934375 7.8203125 116.757265625 7.8203125H883.6953125C943.91171875 7.8203125 993.1796875 57.08828125 993.1796875 117.3046875V883.6953125C993.1796875 944.459140625 943.91171875 993.1796875 883.6953125 993.1796875zM883.6953125 336.2734375H664.7265625C664.7265625 245.4014062499999 590.824609375 172.046875 500.5 172.046875S336.2734375 245.4014062499999 336.2734375 336.2734375H116.757265625V883.6953125H883.6953125V336.2734375z" />
    <glyph glyph-name="loading"
      unicode="&#xE019;"
      horiz-adv-x="1001" d=" M959.33728515625 544.8372617187499H953.5072421875L805.6564140625 544.48534765625L798.4890976562499 544.38368359375C775.8023710937499 542.59283203125 757.8860351562499 523.538640625 757.9368671874998 500.34750390625C757.9368671874998 475.9715898437501 777.6948867187499 456.2604921875001 802.0747109375 456.16273828125H960.42430859375C983.185328125 458.15691796875 1001.0547421875 477.25803125 1001.00391015625 500.52737109375C1000.94916796875 524.0938828124999 982.60271484375 543.3983242187501 959.33728515625 544.8372617187499zM745.0920039062499 682.19323046875L745.19366796875 682.2948945312501L851.4834453125 788.3578828125L857.08669921875 794.06280078125C871.77324609375 811.451265625 870.78788671875 837.64540234375 854.38478125 854.0485078125C837.7040546875 870.65494140625 811.0328789062501 871.35876953125 793.5192890625 855.9410234375L789.45663671875 851.804078125L685.1610390625 747.0783632812501L680.163859375 742.0303515625001C665.40301953125 724.69271875 666.1850507812501 698.6510781250001 682.6116171875001 682.22451171875C699.84367578125 664.98072265625 727.8286640625 664.98072265625 745.0920039062499 682.19323046875zM500.48826953125 1000.43302734375C476.867015625 1000.43302734375 457.5117421875 982.0357421875 456.04934375 958.84460546875L456.0728046875 952.9911015625L456.502921875 805.33969140625V798.19974609375C458.3954375 775.4621875 477.44962890625 757.59668359375 500.61339453125 757.59668359375C525.040140625 757.59668359375 544.8255312499999 777.354703125 544.8255312499999 801.70715625V801.910484375L544.8998242187499 951.90798828125V959.9042578125C542.88218359375 982.66527734375 523.73023828125 1000.43302734375 500.48826953125 1000.43302734375zM318.4665859375 744.978609375L212.3293046875 851.04159765625L206.62438671875 856.71914453125C189.16162890625 871.3313984375 162.99486328125 870.447703125 146.56438671875 854.0172265625C129.86019921875 837.3365 129.22675390625 810.6144921875 144.6210390625 793.22602734375L148.7345234375 789.08908203125L253.58536328125 684.99290234375L258.6568359375 679.944890625C276.06876171875 665.1566796875 302.18860546875 666.040375 318.56433984375 682.3691875C335.851140625 699.7068203125 335.851140625 727.56668359375 318.615171875 744.80265234375L318.4665859375 744.978609375zM202.436609375 456.63977734375C225.19762890625 458.4071679687499 243.09050390625 477.45744921875 243.09050390625 500.6485859374999C243.039671875 525.102703125 223.30511328125 544.75905859375 198.92919921875 544.8333515625H40.52876953125C17.7912109375 542.84308203125 -0.05083203125 523.7419687500001 0 500.55083203125C0 476.9061171875001 18.3699140625 457.6525078125001 41.63925390625 456.1861992187501H47.469296875L195.320125 456.6671484374999H202.436609375V456.63977734375zM255.8571640625 318.88497265625L255.7320390625 318.709015625L149.49309375 212.62256640625L143.86637890625 207.0193125000001C129.2306640625 189.5565546875 130.1378203125 163.3897890625001 146.568296875 147.0375156250001C163.29985546875 130.3841601562501 189.924109375 129.6764218750001 207.4337890625 145.0433359375001L211.5472734375 149.2076523437501L315.81941015625 253.9333671875001L320.8400507812501 258.9540078125C335.6008906250001 276.3151015625 334.7953984375001 302.4584062500001 318.3922929687501 318.78721875C301.05466015625 336.01927734375 273.1439648437501 336.01927734375 255.8571640625 318.88497265625zM544.42278515625 202.77679296875C542.6045625 225.4869804687501 523.50344921875 243.37985546875 500.3357734375 243.37985546875C475.88165625 243.37985546875 456.12363671875 223.6218359375 456.12363671875 199.2693828125V199.0934257812501L456.04934375 49.0724609375001L456.0728046875 41.0722812500001C458.0904453125 18.4129257812501 477.19546875 0.5708828125 500.48826953125 0.5708828125C524.1095234374999 0.5708828125 543.38659375 18.9916289062501 544.903734375 42.1593046875V48.0128085937502L544.42278515625 195.66421875V202.77679296875zM852.2146445312501 211.8874570312499L747.33643359375 315.98363671875L742.3157929687501 321.0316484375C724.927328125 335.819859375 698.7840234375001 335.0104570312499 682.38091796875 318.5838906249999C665.1214882812501 301.3479218749999 665.0941171875 273.4137656249999 682.3574570312501 256.1504257812499L682.509953125 255.9744687499999L788.6237734375001 149.88801953125L794.3286914062501 144.3355976562499C811.84228125 129.6216796874999 837.9855859375 130.5327460937499 854.38869140625 146.9358515624999C871.0928789062499 163.6908710937499 871.7263242187499 190.3151249999999 856.3828710937499 207.7505117187499L852.2146445312501 211.8874570312499z" />
    <glyph glyph-name="menu-close"
      unicode="&#xE01A;"
      horiz-adv-x="1001" d=" M907.15625 771.0828125L768.73671875 909.50234375L499.71796875 639.7015624999999L232.26328125 907.15625L93.84375 768.73671875L361.2984375000001 501.28203125L93.84375 234.609375L232.26328125 96.18984375L499.71796875 363.64453125L768.73671875 93.84375L907.15625 232.26328125L637.35546875 501.28203125z" />
    <glyph glyph-name="menu"
      unicode="&#xE01B;"
      horiz-adv-x="1001" d=" M23.4609375 914.9765625H977.5390625V711.6484375H23.4609375V914.9765625z M23.4609375 602.1640625H977.5390625V398.8359375H23.4609375V602.1640625z M23.4609375 289.3515625H977.5390625V86.0234375H23.4609375V289.3515625z" />
    <glyph glyph-name="minus"
      unicode="&#xE01C;"
      horiz-adv-x="1001" d=" M10.5965234375 605.5971796875H990.39565625V395.395H10.5965234375V605.5971796875001z" />
    <glyph glyph-name="news"
      unicode="&#xE01D;"
      horiz-adv-x="1001" d=" M545.2869296875 522.5845625H858.8110781250001V456.3386953124999H545.2869296875V522.5845625zM545.2869296875 632.9839140624999H858.8110781250001V566.738046875H545.2869296875V632.9839140624999zM545.2869296875 412.1773906250001H858.8110781250001V345.9315234375H545.2869296875V412.1773906250001zM903.5980078125 875.875H97.4019921875C48.1340234375 875.875 7.8203125 836.132171875 7.8203125 787.552390625V213.447609375C7.8203125 164.867828125 48.1340234375 125.125 97.4019921875 125.125H903.605828125C952.873796875 125.125 993.1875078125 164.867828125 993.1875078125 213.447609375V787.552390625C993.1796875 836.132171875 952.8659765625 875.875 903.5980078125 875.875zM903.5980078125 213.447609375H500.5V787.552390625H903.5980078125V213.447609375z" />
    <glyph glyph-name="note"
      unicode="&#xE01E;"
      horiz-adv-x="1001" d=" M207.23828125 993.1796875C153.4736328125 993.1796875 109.9770546875 948.838515625 109.9770546875 894.64375L109.484375 106.3562499999999C109.484375 52.1614843749999 152.9887734375 7.8203125 206.7456015625 7.8203125H793.76171875C847.5263671875 7.8203125 891.515625 52.161484375 891.515625 106.3562499999999V697.5718750000001L598.25390625 993.1796875H207.23828125zM549.376953125 648.30390625V919.277734375L818.2001953125 648.3039062500001H549.376953125z" />
    <glyph glyph-name="padlock"
      unicode="&#xE01F;"
      horiz-adv-x="1001" d=" M819.1855546875 526.416515625H784.6275937500001V699.2845234375H784.205296875C784.3069609375001 702.1936796875 784.6275937500001 705.0402734375 784.6275937500001 707.9650703125C784.62759375 865.4661640625 656.921890625 993.1796875 499.34259375 993.1796875C341.919703125 993.1796875 214.214 865.4661640625 214.214 707.9650703125001C214.214 705.0402734375 214.46425 702.1936796875 214.5502734375 699.2845234375H214.214V526.4165156250001H179.570015625C150.947671875 526.4165156250001 127.736984375 503.2136484375001 127.736984375 474.583484375V59.6533437500001C127.736984375 31.0231796875001 150.9398515625 7.8203125000001 179.570015625 7.8203125000001H819.1855546875C847.8157187500001 7.8203125000001 871.0185859375 31.0231796875001 871.0185859375 59.6533437500001V474.583484375C871.0342265625 503.2136484375 847.8157187500001 526.416515625 819.1855546875 526.416515625zM554.1160625 260.1583359375V151.573296875C554.1160625 121.4650937499999 529.4820781249999 96.831109375 499.3738749999999 96.831109375S444.6316875 121.4650937499999 444.6316875 151.573296875V260.1583359375C420.9830625 277.198796875 405.530125 304.89834375 405.530125 336.2734375C405.530125 388.0986484375 447.5486640625 430.1171875 499.3738749999999 430.1171875C551.1990859375 430.1171875 593.217625 388.0986484375 593.217625 336.2734375C593.217625 304.89834375 577.7646874999999 277.198796875 554.1160625 260.1583359375zM646.3331875 699.2845234375V526.4165156249999H352.4380234375V699.2845234375H352.9385234375C352.774296875 702.1936796875 352.4380234375 705.0402734375 352.4380234375 707.9650703125C352.4380234375 789.0929921874999 418.214671875 854.869640625 499.34259375 854.869640625S646.3331875 789.0929921874999 646.3331875 707.9650703125C646.3331875 705.0402734375 646.0829375 702.1936796875 645.9265312499999 699.2845234375H646.3331875z" />
    <glyph glyph-name="pencil"
      unicode="&#xE020;"
      horiz-adv-x="1001" d=" M7.8203125 213.072234375V7.8203125H213.072234375L818.4348046875 613.1828828125001L613.1828828125 818.442625L7.8203125 213.072234375zM977.1715078125 771.911765625C998.5209609375 793.26121875 998.5209609375 827.7409765625 977.1715078125 849.0904296875L849.0904296875 977.1715078125C827.7409765625 998.5209609375 793.26121875 998.5209609375 771.911765625 977.1715078125L671.749203125 877.0089453125L877.0011249999999 671.7570234375C877.0089453124999 671.749203125 977.1715078125 771.911765625 977.1715078125 771.911765625z" />
    <glyph glyph-name="people"
      unicode="&#xE021;"
      horiz-adv-x="1001" d=" M679.6555390625 545.185265625C754.0032500000001 545.185265625 813.578390625 605.0653984374999 813.578390625 679.2488828124999S754.00325 813.3125 679.6555390625 813.3125S545.2869296875 753.4323671875 545.2869296875 679.2488828124999S605.307828125 545.185265625 679.6555390625 545.185265625zM321.3444609375 545.185265625C395.692171875 545.185265625 455.2673125 605.0653984374999 455.2673125 679.2488828124999S395.692171875 813.3125 321.3444609375 813.3125S186.9758515625 753.4323671875 186.9758515625 679.2488828124999S246.99675 545.185265625 321.3444609375 545.185265625zM321.3444609375 455.8147343750001C216.982390625 455.8147343750001 7.8203125 403.528125 7.8203125 299.4084843750001V187.6875H634.868609375V299.4084843750001C634.868609375 403.528125 425.6987109375001 455.8147343750001 321.3444609375 455.8147343750001zM679.6555390625 455.8147343750001C666.666 455.8147343750001 651.8856093750001 454.9232187499999 636.213703125 453.578125C688.1718593750002 416.040625 724.4502890625001 365.5448671875 724.4502890625001 299.4084843750001V187.6875H993.1796875V299.4084843750001C993.1796875 403.528125 784.017609375 455.8147343750001 679.6555390625 455.8147343750001z" />
    <glyph glyph-name="plus"
      unicode="&#xE022;"
      horiz-adv-x="1001" d=" M993.1796875 602.1640625L602.1640625 602.1640625L602.1640625 993.1796875L398.8359375 993.1796875L398.8359375 602.1640625L7.8203125 602.1640625L7.8203125 398.8359375L398.8359375 398.8359375L398.8359375 7.8203125L602.1640625 7.8203125L602.1640625 398.8359375L993.1796875 398.8359375z" />
    <glyph glyph-name="radio-inner"
      unicode="&#xE023;"
      horiz-adv-x="1001" d=" M250.25 500.5C250.25 362.290741354844 362.2907413548439 250.25 500.5 250.25C638.7092586451561 250.25 750.75 362.290741354844 750.75 500.5C750.75 638.7092586451561 638.7092586451561 750.75 500.5 750.75C362.2907413548439 750.75 250.25 638.7092586451561 250.25 500.5z" />
    <glyph glyph-name="rearrange-vertical"
      unicode="&#xE024;"
      horiz-adv-x="1001" d=" M132.9453125 435.0674453125L500.5 7.8203125L868.0546875 435.0674453125z M868.0546875 565.9325546875L500.5 993.1796875L132.9453125 565.9325546875z" />
    <glyph glyph-name="rounded"
      unicode="&#xE025;"
      horiz-adv-x="1001" d=" M914.4055555555556 1001H86.5944444444445C38.9277777777778 1001 0 962.0722222222222 0 914.4055555555556V86.5944444444443C0 38.9277777777777 38.9277777777778 -1e-13 86.5944444444445 -1e-13H914.4055555555556C962.0722222222224 -1e-13 1001.0000000000002 38.9277777777777 1001.0000000000002 86.5944444444443V914.4055555555556C1001 962.0722222222222 962.0722222222222 1001 914.4055555555556 1001z" />
    <glyph glyph-name="search"
      unicode="&#xE026;"
      horiz-adv-x="1001" d=" M971.2828125 136.85546875L769.5187500000001 339.4015625000001C818.0046875 409.7843750000001 843.0296875000001 488.76953125 843.0296875000001 576.3570312500001C843.0296875000001 632.6632812500001 832.0812500000001 687.4054687500001 810.9664062500001 738.2375000000001C788.2875 789.8515625 758.5703125 833.6453125 721.0328125 871.1828125S638.1374999999999 938.4375 586.5234375 961.11640625C535.69140625 982.23125 480.94921875 993.1796875 425.425 993.1796875S314.3765625000001 982.23125 262.7625 961.11640625S166.57265625 909.50234375 129.8171875 872.746875S62.5625 789.8515625 39.88359375 738.2375S7.8203125 632.66328125 7.8203125 576.3570312500001S18.76875 465.30859375 39.88359375 414.4765625C61.78046875 362.8625000000001 91.49765625 319.06875 129.03515625 280.7492187500001S211.1484375 213.4945312500001 261.98046875 192.3796875000001C313.59453125 170.4828125000001 367.5546875 160.3164062500001 424.64296875 160.3164062500001C511.4484375 160.3164062500001 589.6515625000001 185.3414062500001 660.81640625 233.8273437500002L863.3625000000001 31.2812500000002C877.4390625 16.4226562500002 894.6437500000001 8.6023437500002 916.540625 8.6023437500002C937.65546875 8.6023437500002 954.86015625 16.4226562500002 969.71875 31.2812500000002C984.57734375 46.1398437500003 993.1796875 63.3445312500002 993.1796875 84.4593750000003C993.1796875 104.7921875000001 986.14140625 122.77890625 971.2828125 136.85546875zM613.1125000000001 388.66953125C561.4984375000001 337.8375 498.15390625 310.46640625 426.2070312500001 310.46640625C352.6960937500001 310.46640625 290.9156250000001 336.2734375 239.3015625000001 388.66953125C187.6875000000001 440.28359375 161.8804687500001 503.6281250000001 161.8804687500001 575.575C161.8804687500001 649.0859375 186.9054687500001 711.6484375 239.3015625000001 762.48046875C290.9156250000001 814.09453125 354.2601562500001 840.68359375 426.2070312500001 840.68359375C499.7179687500001 840.68359375 561.4984375000001 814.8765625 613.1125000000001 762.48046875C664.7265625 710.86640625 690.5335937500001 647.5218749999999 690.5335937500001 575.575S663.9445312500001 441.0656250000001 613.1125000000001 388.66953125z" />
    <glyph glyph-name="select-arrow"
      unicode="&#xE027;"
      horiz-adv-x="1001" d=" M500.5 93.84375L993.1796875 836.7734375L7.8203125 836.7734375z" />
    <glyph glyph-name="settings"
      unicode="&#xE028;"
      horiz-adv-x="1001" d=" M864.9891250000001 452.2173906249999C866.9520234375001 467.983140625 868.4222421874999 483.7488906249999 868.4222421874999 500.5C868.4222421874999 517.2511093749999 866.9520234375 533.016859375 864.9891250000001 548.782609375L968.4675 630.0747578125C977.7893125 637.464953125 980.2370703125 650.7673046875 974.3561953125 661.6062578125L876.2738359375 832.0734296875C870.385140625 842.9123828125 857.1453515625001 846.8538203124999 846.361140625 842.9123828125L724.2469609375 793.6444140625C698.744921875 813.3516015624999 671.279984375 829.61003125 641.3672890625 841.9270234375L622.7236640625 972.487140625C621.2534453125 984.311453125 610.95409375 993.1796875 598.69184375 993.1796875H402.527125C390.264875 993.1796875 379.9655234375001 984.311453125 378.4953046875 972.487140625L359.8595 841.9270234375C329.9468046875 829.61003125 302.4818671875001 812.858921875 276.979828125 793.6444140625L154.8656484375 842.9123828125C143.5887578125 847.3465 130.833828125 842.9123828125 124.952953125 832.0734296875L26.8627734375 661.6062578125C20.48921875 650.7673046875 23.42965625 637.464953125 32.75146875 630.0747578125L136.22984375 548.782609375C134.2669453125 533.016859375 132.78890625 516.7584296875 132.78890625 500.5C132.78890625 484.2415703125 134.259125 467.983140625 136.2220234375 452.2173906249999L32.7436484375 370.9252421875C23.4218359375 363.5350468750001 20.974078125 350.2326953125001 26.854953125 339.3937421875001L124.9373125 168.9265703125C130.8260078125 158.0876171875 144.065796875 154.1461796875 154.8500078125 158.0876171875L276.9641875 207.3555859375C302.4662265625 187.6483984375001 329.9311640625 171.38996875 359.843859375 159.0729765625L378.4796640625 28.512859375C379.9498828125 16.6885468749999 390.249234375 7.8203124999999 402.511484375 7.8203124999999H598.676203125C610.938453125 7.8203124999999 621.2378046875001 16.6885468749999 622.7080234375 28.512859375L641.343828125 159.0729765624999C671.2565234374999 171.3899687499999 698.7214609375 188.1410781249998 724.2235 207.3555859374999L846.3376796874999 158.0876171874999C857.6145703124998 153.6535 870.3694999999998 158.0876171874999 876.2503749999998 168.9265703124999L974.3327343749997 339.3937421874999C980.2214296875 350.2326953124999 977.7658515624998 363.5350468749999 968.4440390624998 370.9252421874999L864.9891250000001 452.2173906249999zM500.609484375 328.062109375C405.9602421875 328.062109375 328.9614453125 405.4128203125001 328.9614453125 500.5S405.9602421875 672.9378906249999 500.609484375 672.9378906249999S672.2575234374999 595.5871796875 672.2575234374999 500.5S595.2587265625 328.062109375 500.609484375 328.062109375z" />
    <glyph glyph-name="solid-arrow-down"
      unicode="&#xE029;"
      horiz-adv-x="1001" d=" M78.203125 578.703125L500.5 10.9249765625001L922.796875 578.703125L711.6484375 578.703125L711.6484375 993.1796875L289.3515625 993.1796875L289.3515625 578.703125z" />
    <glyph glyph-name="solid-arrow-right"
      unicode="&#xE02A;"
      horiz-adv-x="1001" d=" M422.296875 79.7593671875L990.0750234375 502.0562421875L422.296875 924.3531171875L422.296875 711.6484375L7.8203125 711.6484375L7.8203125 289.3515625L422.296875 289.3515625z" />
    <glyph glyph-name="solid-arrow-up"
      unicode="&#xE02B;"
      horiz-adv-x="1001" d=" M922.796875 422.296875L500.5 990.0750234375L78.203125 422.296875L289.3515625 422.296875L289.3515625 7.8203125L711.6484375 7.8203125L711.6484375 422.296875z" />
    <glyph glyph-name="timeline"
      unicode="&#xE02C;"
      horiz-adv-x="1001" d=" M993.1796875 682.9713515625C993.1796875 632.78840625 952.8659765625 591.731765625 903.5980078125 591.731765625C895.535265625 591.731765625 887.9182812500001 592.6467421875 880.754875 594.922453125L721.3065234375 432.9872421875C723.5431328125001 425.690890625 724.44246875 417.4795625000001 724.44246875 409.268234375C724.44246875 359.0852890625 684.1287578125 318.0286484375 634.8607890625 318.0286484375C585.5928203125 318.0286484375 545.279109375 359.0852890625 545.279109375 409.268234375C545.279109375 417.4795625000001 546.1784453125 425.690890625 548.4150546875 432.9872421875L434.21503125 549.314390625C427.0516250000001 547.030859375 418.9888828125 546.123703125 410.926140625 546.123703125S394.8006562500001 547.0386796875 387.63725 549.314390625L183.8477265625 341.294078125C186.0843359375 333.9977265624999 186.983671875 326.2399765625001 186.983671875 318.0286484375C186.9758515625 267.845703125 146.6699609375 226.7890625 97.4019921875 226.7890625S7.8203125 267.845703125 7.8203125 318.0286484375C7.8203125 368.21159375 48.1340234375 409.268234375 97.4019921875 409.268234375C105.464734375 409.268234375 113.08171875 408.3532578125001 120.245125 406.0775468750001L324.48040625 613.64428125C322.243796875 620.9406328125001 321.3444609375 629.1519609375 321.3444609375 637.3632890625C321.3444609375 687.546234375 361.658171875 728.602875 410.926140625 728.602875S500.5 687.5384140625 500.5 637.35546875C500.5 629.1441406250001 499.6006640625 620.9328125 497.3640546875 613.6364609375L611.57971875 497.3093125C618.7431250000001 499.5850234375 626.8058671875 500.5 634.868609375 500.5C642.9313515625 500.5 650.99409375 499.5850234375 658.1575 497.3093125L817.1600937499999 659.7137421875C814.9234843749999 667.0100937499999 814.0241484375 674.7678437499999 814.0241484375 682.979171875C814.0241484375 733.1621171874999 854.337859375 774.2187578124999 903.605828125 774.2187578124999S993.1796875 733.154296875 993.1796875 682.9713515625z" />
    <glyph glyph-name="triangle-down"
      unicode="&#xE02D;"
      horiz-adv-x="1001" d=" M7.8203125 819.56875L500.5 86.0234375L993.1796875 819.56875z" />
    <glyph glyph-name="triangle-right"
      unicode="&#xE02E;"
      horiz-adv-x="1001" d=" M180.64921875 7.0382812500001L914.19453125 499.7179687500001L180.64921875 992.39765625z" />
    <glyph glyph-name="triangle-up"
      unicode="&#xE02F;"
      horiz-adv-x="1001" d=" M993.1796875 132.9453125L500.5 866.490625L7.8203125 132.9453125z" />
    <glyph glyph-name="ul-tick"
      unicode="&#xE030;"
      horiz-adv-x="1001" d=" M830.8534609375 895.42578125L362.6748125 430.1562890624999L172.1172578125 619.5016953125L8.805671875 457.1754687499999L362.6748125 105.57421875L994.165046875 733.0995546875z" />
    <glyph glyph-name="upload"
      unicode="&#xE031;"
      horiz-adv-x="1001" d=" M326.6153515625 239.6691171875001V587.446234375H94.766546875L500.5 993.1796875L906.233453125 587.446234375H674.3846484375V239.6691171875001H326.6153515625M94.766546875 7.8203125V123.748625H906.2412734375V7.8203125H94.766546875z" />
    <glyph glyph-name="warning"
      unicode="&#xE032;"
      horiz-adv-x="1001" d=" M991.615625 141.5476562499999L563.0625 927.4890625C556.80625 939.21953125 548.2039062499999 947.821875 536.4734374999999 954.86015625C525.5249999999999 961.8984375 513.0124999999999 965.0265625 500.4999999999999 965.0265625C487.2054687499999 965.0265625 475.4749999999999 961.8984375 464.5265625 954.86015625C453.5781249999999 947.821875 444.97578125 939.21953125 437.9375 927.4890625L9.384375 141.5476562499999C-3.91015625 118.0867187499999 -3.128125 94.6257812499999 10.16640625 71.1648437499999C16.42265625 60.2164062499999 25.025 51.6140624999999 35.9734375 45.3578125C46.921875 39.1015625 58.65234375 35.9734374999999 71.16484375 35.9734374999999H928.2710937499997C940.78359375 35.9734374999999 952.5140625 39.1015625 963.4624999999997 45.3578125C974.4109375 51.6140624999999 983.0132812499997 60.21640625 989.2695312499998 71.1648437499999C1004.128125 94.6257812499999 1004.91015625 118.0867187499999 991.615625 141.5476562499999zM571.6648437499999 197.85390625C571.6648437499999 192.3796874999999 570.10078125 188.4695312499999 566.190625 184.5593749999999C562.28046875 180.6492187499999 558.3703125 179.08515625 553.678125 179.08515625H447.3218750000001C442.6296875 179.08515625 437.9375 180.6492187499999 434.809375 184.5593749999999C430.89921875 188.4695312499999 429.33515625 192.3796874999999 429.33515625 197.85390625V303.428125C429.33515625 308.90234375 430.89921875 312.8125 434.809375 316.72265625C438.71953125 320.6328125 442.6296875 322.196875 447.3218750000001 322.196875H554.4601562500001C559.15234375 322.196875 563.84453125 320.6328125 566.97265625 316.72265625C570.8828125 312.8125 572.446875 308.90234375 572.446875 303.428125V197.85390625zM570.8828125 405.8742187500001C570.8828125 401.9640625000001 568.53671875 398.8359375 565.40859375 396.48984375C561.4984375 394.1437500000001 557.58828125 392.5796875 552.1140624999999 392.5796875H448.8859375C443.41171875 392.5796875 439.5015625 394.1437500000001 435.59140625 396.48984375C431.68125 398.8359375 430.1171875 401.9640625000001 430.1171875 405.8742187500001L420.7328124999999 660.81640625C420.7328124999999 666.2906250000001 422.296875 670.2007812500001 426.20703125 672.546875C430.89921875 676.45703125 435.59140625 678.803125 439.5015625 678.803125H562.28046875C566.190625 678.803125 570.8828124999999 676.45703125 575.5749999999999 672.546875C579.4851562499999 670.2007812500001 581.04921875 666.2906250000001 581.04921875 661.5984375L570.8828125 405.8742187500001z" />
  </font>
</defs>
</svg>
